<svg width="25" height="24" viewBox="0 0 25 24" fill="none" xmlns="http://www.w3.org/2000/svg">
<path d="M5.32667 10.3867C7.24667 14.16 10.34 17.24 14.1133 19.1733L17.0467 16.24C17.4067 15.88 17.94 15.76 18.4067 15.92C19.9 16.4133 21.5133 16.68 23.1667 16.68C23.9 16.68 24.5 17.28 24.5 18.0133V22.6667C24.5 23.4 23.9 24 23.1667 24C10.6467 24 0.5 13.8533 0.5 1.33333C0.5 0.6 1.1 0 1.83333 0H6.5C7.23333 0 7.83333 0.6 7.83333 1.33333C7.83333 3 8.1 4.6 8.59333 6.09333C8.74 6.56 8.63333 7.08 8.26 7.45333L5.32667 10.3867Z" fill="#FF782D"/>
</svg>
